<svg xmlns="http://www.w3.org/2000/svg" xmlns:xlink="http://www.w3.org/1999/xlink" xml:lang="en" height="333.20000000000005pt" width="75.49999999999999pt" viewBox="-52.89999999999999 -328.6 75.49999999999999 333.20000000000005"><circle cx="0" cy="-54" r="18" style="stroke:black;fill:none;stroke-width:2.0;stroke-dasharray:-;" /><polygon points="-9,-263.7 0,-276.3 9,-263.7 " style="stroke:black;fill:none;stroke-width:2.0;stroke-dasharray:-;stroke-linecap:round;stroke-linejoin:round;" /><path d="M 0.0,-0.0 L 0,-36 L 0,-36 M 0,-72 L 0,-72 L 0,-108" style="stroke:black;fill:none;stroke-width:2.0;stroke-dasharray:-;stroke-linecap:round;stroke-linejoin:round;" /><path d="M 3.600000000000003,-45.0 L -3.6,-45" style="stroke:black;fill:none;stroke-width:2.0;stroke-dasharray:-;stroke-linecap:round;stroke-linejoin:round;" /><path d="M 3.637200993467639e-15,-59.4 L 0,-66.6" style="stroke:black;fill:none;stroke-width:2.0;stroke-dasharray:-;stroke-linecap:round;stroke-linejoin:round;" /><path d="M 3.600000000000004,-63.0 L -3.6,-63" style="stroke:black;fill:none;stroke-width:2.0;stroke-dasharray:-;stroke-linecap:round;stroke-linejoin:round;" /><path d="M 6.613092715395707e-15,-108.0 L 0,-144 L -9,-147 L 9,-153 L -9,-159 L 9,-165 L -9,-171 L 9,-177 L 0,-180 L 0,-216" style="stroke:black;fill:none;stroke-width:2.0;stroke-dasharray:-;stroke-linecap:round;stroke-linejoin:round;" /><path d="M 1.3226185430791413e-14,-216.0 L 0,-263.7 M -9,-276.3 L 9,-276.3 M 0,-276.3 L 0,-324" style="stroke:black;fill:none;stroke-width:2.0;stroke-dasharray:-;stroke-linecap:round;stroke-linejoin:round;" /><path d="M -13.499999999999982,-272.7 L -22.999,-278.128" style="stroke:black;fill:none;stroke-width:2.0;stroke-dasharray:-;stroke-linecap:round;stroke-linejoin:round;" /><path d="M -27.514 -280.708 L -21.57 -280.628 L -24.428 -275.627 Z" style="stroke:black;fill:black;stroke-linecap:butt;stroke-linejoin:miter;" /><path d="M -13.499999999999984,-264.59999999999997 L -22.999,-270.028" style="stroke:black;fill:none;stroke-width:2.0;stroke-dasharray:-;stroke-linecap:round;stroke-linejoin:round;" /><path d="M -27.514 -272.608 L -21.57 -272.528 L -24.428 -267.527 Z" style="stroke:black;fill:black;stroke-linecap:butt;stroke-linejoin:miter;" /><path d="M 1.9839278146187122e-14,-324.0 L 0,-309.6 L -9,-309.6 L 9,-309.6 M -6.3,-305.28 L 6.3,-305.28 M -1.8,-300.96 L 1.8,-300.96" style="stroke:black;fill:none;stroke-width:2.0;stroke-dasharray:-;stroke-linecap:round;stroke-linejoin:round;" /><text x="-21.599999999999994" y="-68.0" dominant-baseline="central" fill="black" font-size="14.0" font-family="sans" text-anchor="end"><tspan x="-21.599999999999994" dy="14.0">5V</tspan></text><text x="-12.599999999999989" y="-176.0" dominant-baseline="central" fill="black" font-size="14.0" font-family="sans" text-anchor="end"><tspan x="-12.599999999999989" dy="14.0">300Ω</tspan></text></svg>